Format : AVI
Format/Info : Audio Video Interleave
File size : 868 MiB
Duration : 1h 41mn
Overall bit rate : 1 193 Kbps
Writing library : VirtualDub build 32842/release

Video
ID : 0
Format : MPEG-4 Visual
Format profile : Advanced Simple@L5
Format settings, BVOP : 2
Format settings, QPel : No
Format settings, GMC : No warppoints
Format settings, Matrix : Default (H.263)
Muxing mode : Packed bitstream
Codec ID : XVID
Codec ID/Hint : XviD
Duration : 1h 41mn
Bit rate : 1 055 Kbps
Width : 642 pixels
Height : 272 pixels
Display aspect ratio : 2.35:1
Frame rate : 25.000 fps
Color space : YUV
Chroma subsampling : 4:2:0
Bit depth : 8 bits
Scan type : Progressive
Compression mode : Lossy
Bits/(Pixel*Frame) : 0.242
Stream size : 768 MiB (88%)
Writing library : XviD 64

Audio
ID : 1
Format : MPEG Audio
Format version : Version 1
Format profile : Layer 3
Mode : Joint stereo
Mode extension : MS Stereo
Codec ID : 55
Codec ID/Hint : MP3
Duration : 1h 41mn
Bit rate mode : Constant
Bit rate : 128 Kbps
Channel(s) : 2 channels
Sampling rate : 44.1 KHz
Compression mode : Lossy
Stream size : 93.2 MiB (11%)
Alignment : Split accross interleaves
Interleave, duration : 40 ms (1.00 video frame)
Interleave, preload duration : 500 ms
Writing library : LAME3.98r
Encoding settings : -m j -V 4 -q 2 -lowpass 17 -b 128








 
http://www.imdb.com/title/tt1637688/



Ratings: 6.4/10 from 1,189 users Metascore: 55/100
Reviews: 34 user | 25 critic | 30 from Metacritic.com

In a future where people stop aging at 25, but are engineered to live only one more year, having the means to buy your way out of the situation is a shot at immortal youth. Here, Will Salas finds himself accused of murder and on the run with a hostage - a connection that becomes an important part of the way against the system.
Director:
Andrew Niccol
Writer:
Andrew Niccol
Stars:
Justin Timberlake, Amanda Seyfried and Cillian Murphy

















Source Used


RELIZLAB/MISTERE ................Thanks

Another one ive kept the file size down on i actually went abit over what i wanted but hey it happens

Changed the rgb,hue,levels,resized

Check out the sample included its got flaws this vid thats the reason for the readnfo ..........as mistere stated the vid and line aint the best ........but its free free free

Enjoy





Greetz to IMAGiNE,Flawl3ss,BDK,Ez,CreWsaDe,TaRiQ786,ETRG,BHRG,iLLUMiNATi,ViSUALiSE,MiSTERE
